<svg width="200" height="200" viewBox="0 0 200 200" fill="none" xmlns="http://www.w3.org/2000/svg">
<g clip-path="url(#clip0_351_28)">
<path fill-rule="evenodd" clip-rule="evenodd" d="M100.001 16.667C146.026 16.667 183.335 53.9753 183.335 100C183.364 119.233 176.713 137.878 164.518 152.75L164.685 152.934L163.585 153.867C155.77 163.111 146.031 170.536 135.049 175.626C124.067 180.716 112.106 183.346 100.001 183.334C75.4181 183.334 53.3347 172.692 38.0847 155.775L36.4181 153.859L35.3181 152.942L35.4847 152.742C23.291 137.873 16.6399 119.23 16.6681 100C16.6681 53.9753 53.9764 16.667 100.001 16.667ZM100.001 141.667C84.5014 141.667 70.4931 146.6 60.0597 153.375C71.5788 162.022 85.598 166.687 100.001 166.667C114.405 166.687 128.424 162.022 139.943 153.375C128.02 145.739 114.16 141.676 100.001 141.667ZM100.001 33.3337C87.4558 33.3333 75.1646 36.8729 64.5407 43.5457C53.9169 50.2185 45.3914 59.7536 39.9444 71.0551C34.4973 82.3565 32.3498 94.9656 33.7485 107.433C35.1472 119.9 40.0355 131.72 47.8514 141.534C61.3597 131.842 79.7931 125 100.001 125C120.21 125 138.643 131.842 152.151 141.534C159.967 131.72 164.856 119.9 166.254 107.433C167.653 94.9656 165.505 82.3565 160.058 71.0551C154.611 59.7536 146.086 50.2185 135.462 43.5457C124.838 36.8729 112.547 33.3333 100.001 33.3337ZM100.001 50.0003C108.842 50.0003 117.32 53.5122 123.572 59.7634C129.823 66.0146 133.335 74.4931 133.335 83.3337C133.335 92.1742 129.823 100.653 123.572 106.904C117.32 113.155 108.842 116.667 100.001 116.667C91.1608 116.667 82.6824 113.155 76.4312 106.904C70.1799 100.653 66.6681 92.1742 66.6681 83.3337C66.6681 74.4931 70.1799 66.0146 76.4312 59.7634C82.6824 53.5122 91.1608 50.0003 100.001 50.0003ZM100.001 66.667C95.5811 66.667 91.3419 68.4229 88.2163 71.5485C85.0907 74.6742 83.3347 78.9134 83.3347 83.3337C83.3347 87.7539 85.0907 91.9932 88.2163 95.1188C91.3419 98.2444 95.5811 100 100.001 100C104.422 100 108.661 98.2444 111.786 95.1188C114.912 91.9932 116.668 87.7539 116.668 83.3337C116.668 78.9134 114.912 74.6742 111.786 71.5485C108.661 68.4229 104.422 66.667 100.001 66.667Z" fill="#AEBDE4"/>
</g>
<defs>
<clipPath id="clip0_351_28">
<rect width="200" height="200" fill="white"/>
</clipPath>
</defs>
</svg>
